PathFileType	4	(X/Y/Z)	G:\GRF\jawan data\CompiledGRF\03. Mohit Kumar\0231~ac~Walking 04_markers.trc
DataRate	CameraRate	NumFrames	NumMarkers	Units	OrigDataRate	OrigDataStartFrame	OrigNumFrames
100.000000	100.000000	6	18	mm	100.000000	538	1076
Frame#	Time	c7			r should			l should			sacrum			r asis			r bar 1			r knee 1			r bar 2			r mall			r heel			r met			l asis			l bar 1			l knee 1			l bar 2			l mall			l heel			l met			
		X1	Y1	Z1	X2	Y2	Z2	X3	Y3	Z3	X4	Y4	Z4	X5	Y5	Z5	X6	Y6	Z6	X7	Y7	Z7	X8	Y8	Z8	X9	Y9	Z9	X10	Y10	Z10	X11	Y11	Z11	X12	Y12	Z12	X13	Y13	Z13	X14	Y14	Z14	X15	Y15	Z15	X16	Y16	Z16	X17	Y17	Z17	X18	Y18	Z18	

539	5.38	-465.3026428222656	1518.560791015625	265.7261352539063	-373.2554321289063	1460.34326171875	434.9671936035156	-399.4765319824219	1466.339965820313	90.23829650878906	-523.724365234375	1052.095703125	258.1526794433594	-334.3179931640625	1017.73583984375	374.5087280273438	-423.3958740234375	605.19970703125	427.0243835449219	-416.919921875	519.9618530273438	370.8277282714844	-492.0798950195313	199.3233642578125	379.762939453125	-494.2239074707031	75.59243011474609	312.27392578125	-553.9740600585938	42.46970367431641	265.2752685546875	-346.15771484375	42.00751495361328	305.7171936035156	-348.8038635253906	1029.938598632813	126.9475250244141	-254.3604125976563	638.4879150390625	30.49631881713867	-208.7776947021484	554.4556274414063	77.99517059326172	-345.1788330078125	305.3239135742188	39.26187133789063	-405.988037109375	142.67529296875	109.4387435913086	-470.0425720214844	118.8854064941406	170.9945068359375	nan	nan	nan	
540	5.39	-456.1959838867188	1518.025756835938	265.5933227539063	-364.5155029296875	1459.493774414063	434.9428405761719	-390.2835083007813	1465.588623046875	90.15671539306641	-515.483642578125	1051.941162109375	257.6986083984375	-327.1596984863281	1016.758911132813	374.5016174316406	-419.6045532226563	604.9420776367188	427.09423828125	-413.9291076660156	519.62451171875	370.9477233886719	-491.16357421875	199.4011077880859	379.8612365722656	-494.0447082519531	75.70060729980469	312.2060852050781	-553.8819580078125	42.60677719116211	265.2457275390625	-346.0518188476563	41.90901565551758	305.7578735351563	-340.3151550292969	1029.370361328125	127.2315979003906	-244.8696746826172	638.7218017578125	31.2887134552002	-196.8993682861328	556.030029296875	78.63173675537109	-322.3296813964844	301.6669616699219	38.57835006713867	-375.1511535644531	135.6700592041016	108.0005874633789	-437.1571044921875	108.0289306640625	168.5126342773438	nan	nan	nan	
541	5.4	-446.9343872070313	1517.280517578125	265.3723449707031	-355.62646484375	1458.529296875	434.8703918457031	-380.8864135742188	1464.695190429688	90.03556060791016	-507.1694946289063	1051.494384765625	257.1456909179688	-319.6231994628906	1015.582580566406	374.7076721191406	-415.539794921875	604.6586303710938	427.1953430175781	-411.0498962402344	519.2742309570313	371.0475463867188	-490.1589050292969	199.4911804199219	379.9520874023438	-493.9592590332031	75.85137939453125	312.1348876953125	-553.7164306640625	42.71783828735352	265.2098388671875	-345.9197387695313	41.75157928466797	305.8078002929688	-332.0639343261719	1028.7578125	127.5302352905273	-236.2548675537109	638.4485473632813	32.12150192260742	-185.25830078125	557.1668701171875	79.43016052246094	-299.7257995605469	298.0895080566406	37.96231079101563	-343.9294738769531	129.0567626953125	106.4972305297852	-405.1768188476563	98.34356689453125	166.2090454101563	nan	nan	nan	
542	5.41	-437.7266845703125	1516.480712890625	265.0965881347656	-346.7918701171875	1457.505249023438	434.8005676269531	-371.5456237792969	1463.795776367188	89.88246154785156	-499.1111755371094	1050.875366210938	256.493408203125	-311.8740234375	1014.466735839844	375.0392456054688	-411.2789001464844	604.2778930664063	427.3144226074219	-407.8938598632813	518.8848876953125	371.184814453125	-489.0928344726563	199.6352081298828	379.9886169433594	-493.7325744628906	75.96549224853516	312.1195068359375	-553.7269897460938	42.99119186401367	265.2047729492188	-345.7484436035156	41.65875244140625	305.8575744628906	-322.9409484863281	1028.015869140625	127.7490844726563	-228.0748748779297	637.55517578125	32.98660659790039	-174.2948608398438	557.9396362304688	80.38725280761719	-277.0534362792969	294.5202026367188	37.56338500976563	-312.4664306640625	122.9137649536133	105.2093124389648	-373.07568359375	89.36968231201172	164.0290222167969	nan	nan	nan	
543	5.42	-428.5938720703125	1515.69482421875	264.8620300292969	-337.7900085449219	1456.37939453125	434.6510620117188	-362.3974304199219	1462.904296875	89.69522857666016	-490.8816833496094	1050.019653320313	255.7342987060547	-304.1941833496094	1013.358337402344	375.2588806152344	-406.82373046875	603.9022827148438	427.4240417480469	-404.4771118164063	518.4090576171875	371.2374572753906	-488.0315551757813	199.7704925537109	380.009033203125	-493.5044555664063	76.14337158203125	312.0942077636719	-553.8290405273438	43.36700439453125	265.1397094726563	-345.64794921875	41.56720733642578	305.8639221191406	-313.8031311035156	1027.11962890625	127.9518280029297	-219.9154205322266	636.1834106445313	33.87853622436523	-164.0376129150391	558.1910400390625	81.44345092773438	-254.5992126464844	291.1154479980469	37.35144424438477	-281.0157165527344	117.3908538818359	104.1371154785156	-340.8206481933594	81.09841918945313	162.1625518798828	-148.4173583984375	71.49868011474609	119.8372650146484	
544	5.43	-419.2324523925781	1514.738159179688	264.6091918945313	-328.7814025878906	1455.173828125	434.4064025878906	-353.1970520019531	1461.928833007813	89.45135498046875	-482.5065612792969	1049.001831054688	254.9949340820313	-296.22021484375	1012.325988769531	375.29931640625	-402.4440612792969	603.5264892578125	427.4754333496094	-400.9695739746094	517.8763427734375	371.2099914550781	-487.107421875	199.9596099853516	380.0187072753906	-493.2931823730469	76.35515594482422	312.0790710449219	-553.7679443359375	43.7124137878418	265.1147766113281	-345.5750427246094	41.42630386352539	305.838134765625	-305.1357421875	1026.162841796875	128.2112426757813	-211.5071105957031	634.60400390625	34.93950653076172	-154.2340545654297	558.075927734375	82.68021392822266	-231.9109497070313	287.8307495117188	37.20139312744141	-250.1056823730469	112.5600738525391	103.4264221191406	-308.9663391113281	73.84500122070313	160.7300109863281	-115.6735229492188	71.86536407470703	120.4735946655273	
